<?xml version="1.0" standalone="no"?>
<!DOCTYPE svg PUBLIC "-//W3C//DTD SVG 20010904//EN"
 "http://www.w3.org/TR/2001/REC-SVG-20010904/DTD/svg10.dtd">
<svg version="1.0" xmlns="http://www.w3.org/2000/svg"
 width="370.000000pt" height="370.000000pt" viewBox="0 0 370.000000 370.000000"
 preserveAspectRatio="xMidYMid meet">
<metadata>
Created by potrace 1.14, written by Peter Selinger 2001-2017
</metadata>
<g transform="translate(0.000000,370.000000) scale(0.100000,-0.100000)"
fill="#000000" stroke="none">
<path d="M1790 3484 c-8 -3 -44 -14 -80 -26 -97 -31 -157 -64 -218 -121 -94
-89 -132 -200 -112 -325 6 -35 9 -65 8 -66 -2 -1 -20 -9 -40 -18 l-37 -17 5
27 c7 36 -28 72 -54 56 -24 -15 -54 -70 -67 -121 -9 -37 -20 -49 -75 -86 -71
-47 -142 -128 -184 -210 -15 -28 -19 -41 -9 -27 36 51 150 163 210 208 46 34
64 53 68 76 15 73 45 126 73 126 19 0 8 -43 -24 -92 -13 -21 -22 -38 -19 -38
2 0 36 20 74 45 89 57 112 59 75 7 -24 -34 -12 -36 20 -3 15 16 29 41 31 56 5
53 115 116 280 161 219 58 219 58 233 84 27 50 -3 216 -50 283 -15 21 -27 27
-56 26 -20 0 -44 -3 -52 -5z"/>
<path d="M1835 3079 c-88 -13 -227 -55 -295 -89 -75 -38 -78 -47 -5 -15 348
154 986 92 1317 -129 152 -101 268 -290 268 -435 0 -245 -244 -526 -617 -709
-56 -28 -137 -64 -180 -81 -104 -42 -35 -29 87 16 332 123 575 319 690 556 51
106 67 196 52 279 -29 155 -161 343 -307 436 -88 56 -371 138 -573 166 -120
17 -337 19 -437 5z"/>
<path d="M841 2859 c-50 -68 -62 -143 -35 -223 l16 -47 22 65 c25 75 47 103
95 123 33 14 33 14 15 35 -11 11 -35 33 -55 49 l-36 28 -22 -30z"/>
<path d="M2465 2871 c-279 -80 -434 -367 -319 -593 53 -105 157 -182 284 -209
73 -16 211 -6 285 20 124 44 230 137 286 249 42 85 51 199 24 285 -35 110
-139 209 -263 247 -81 25 -212 26 -297 1z m294 -103 c10 -24 15 -28 18 -16 3
13 62 44 68 36 16 -22 71 -138 65 -138 -13 0 -57 49 -72 81 l-15 30 -6 -47
c-2 -26 0 -60 5 -76 7 -20 7 -33 -2 -43 -19 -23 -40 -18 -40 9 0 13 -13 52
-28 86 -28 62 -29 62 -35 32 -4 -17 0 -53 8 -79 12 -40 12 -50 1 -61 -8 -9
-22 -11 -35 -7 -17 5 -21 14 -21 50 0 23 -6 54 -13 69 -13 25 -14 23 -26 -47
-21 -122 -19 -117 -46 -117 -18 0 -25 5 -25 20 0 11 -4 20 -10 20 -5 0 -10 5
-10 11 0 6 -9 22 -20 36 l-19 25 -7 -29 c-4 -15 -8 -39 -8 -53 -1 -19 -7 -26
-28 -28 -21 -3 -30 3 -41 24 l-15 28 -6 -32 c-6 -23 -11 -29 -24 -25 -15 6
-15 4 -4 -10 9 -10 11 -27 7 -47 -6 -28 -10 -31 -38 -28 -29 3 -32 6 -38 46
-3 24 -2 45 3 48 5 3 4 11 -1 18 -6 7 -8 16 -4 19 3 4 1 7 -5 7 -7 0 -12 -15
-12 -33 0 -18 -4 -37 -10 -43 -5 -5 -12 -25 -14 -42 -2 -18 -6 -36 -10 -39
-20 -20 14 198 35 223 19 23 36 16 51 -22 l15 -37 8 34 c4 19 7 37 7 40 -2 14
57 15 62 2 10 -25 25 -13 28 24 3 33 7 38 34 44 29 5 33 3 55 -38 13 -24 28
-42 34 -40 12 4 23 42 24 90 1 33 4 37 29 38 15 1 34 1 43 0 8 -1 26 3 40 8
34 14 33 14 48 -21z"/>
<path d="M1207 2620 c-72 -85 12 -288 114 -278 40 4 72 45 73 93 1 42 6 43 29
8 18 -28 18 -28 11 -3 -12 46 -65 137 -98 169 -19 18 -48 34 -68 37 -30 5 -38
2 -61 -26z m111 -22 c36 -36 -11 -96 -49 -62 -23 21 -24 37 -3 58 19 19 36 20
52 4z"/>
<path d="M810 2495 c-25 -7 -63 -21 -85 -32 -45 -24 -124 -104 -149 -151 -23
-45 -46 -149 -46 -213 0 -61 26 -212 41 -241 30 -56 279 -12 325 57 12 19 11
37 -11 154 -36 191 -41 273 -21 349 9 35 16 67 16 72 0 15 -25 17 -70 5z"/>
<path d="M914 2382 c21 -206 223 -584 435 -815 99 -108 136 -163 207 -310 l47
-98 -12 -97 c-11 -84 -10 -106 3 -166 9 -38 15 -71 12 -73 -5 -5 -108 47 -151
76 -43 30 -48 26 -42 -24 7 -51 71 -180 111 -224 13 -14 14 -30 6 -100 -9 -82
-2 -161 20 -200 15 -30 60 -61 86 -61 56 0 103 32 203 139 l99 107 113 12 113
12 98 -49 c85 -44 102 -49 130 -41 48 14 57 35 37 87 -6 15 -19 65 -29 110
l-18 83 24 57 c13 32 24 68 24 81 0 19 5 22 39 22 22 0 44 6 51 15 17 20 -16
86 -89 179 -130 164 -148 194 -198 336 -30 86 -32 90 -27 45 13 -115 48 -202
119 -293 116 -149 115 -372 0 -488 -54 -54 -100 -77 -203 -103 -98 -26 -113
-26 -105 -5 5 13 2 15 -18 9 -43 -14 -103 -61 -186 -149 -151 -159 -209 -166
-234 -31 -17 90 4 219 52 333 14 33 24 42 42 42 33 0 86 38 118 85 46 67 41
82 -8 26 -55 -63 -86 -78 -118 -57 -40 26 -48 76 -42 241 4 125 3 143 -7 110
l-12 -40 -11 60 c-15 79 -47 162 -83 216 -16 24 -82 105 -146 179 -207 240
-313 421 -421 720 -34 93 -34 94 -29 42z m1560 -1387 c31 -61 29 -74 -9 -57
-21 10 -25 19 -25 51 0 22 -3 47 -7 57 -14 38 15 2 41 -51z m-68 -491 c-8 -21
-41 -13 -133 33 l-72 37 48 27 c27 16 63 47 82 70 l33 42 24 -97 c13 -53 21
-104 18 -112z"/>
<path d="M1976 1641 c-38 -25 -75 -69 -82 -97 -4 -15 2 -34 17 -55 21 -30 24
-31 78 -26 65 6 127 28 99 34 -20 5 -31 39 -32 98 -1 39 0 40 29 37 26 -4 28
-2 16 12 -19 22 -89 21 -125 -3z"/>
</g>
</svg>
